<svg width="193" height="87" viewBox="0 0 193 87" fill="none" xmlns="http://www.w3.org/2000/svg">
<path d="M34.077 52.5055C34.077 53.6525 33.8735 54.5035 33.4665 55.0585C33.0595 55.6135 32.412 56.15 31.524 56.668C31.006 56.964 30.3585 57.26 29.5815 57.556C28.8045 57.815 27.9535 58.037 27.0285 58.222C26.1035 58.444 25.123 58.6105 24.087 58.7215C23.088 58.8325 22.089 58.888 21.09 58.888C18.426 58.888 15.9285 58.5365 13.5975 57.8335C11.2665 57.0935 9.2315 56.002 7.4925 54.559C5.7905 53.079 4.44 51.2475 3.441 49.0645C2.442 46.8815 1.9425 44.347 1.9425 41.461C1.9425 38.427 2.479 35.7815 3.552 33.5245C4.662 31.2675 6.105 29.399 7.881 27.919C9.694 26.402 11.7475 25.2735 14.0415 24.5335C16.3725 23.7935 18.759 23.4235 21.201 23.4235C24.716 23.4235 27.491 23.997 29.526 25.144C31.598 26.254 32.634 27.7155 32.634 29.5285C32.634 30.4905 32.3935 31.323 31.9125 32.026C31.4315 32.729 30.8765 33.284 30.2475 33.691C29.3225 33.136 28.157 32.5995 26.751 32.0815C25.382 31.5265 23.828 31.249 22.089 31.249C18.981 31.249 16.502 32.137 14.652 33.913C12.839 35.689 11.9325 38.1495 11.9325 41.2945C11.9325 42.9965 12.173 44.4765 12.654 45.7345C13.172 46.9555 13.8565 47.973 14.7075 48.787C15.5585 49.564 16.539 50.156 17.649 50.563C18.759 50.933 19.943 51.118 21.201 51.118C22.015 51.118 22.7365 51.044 23.3655 50.896C23.9945 50.748 24.4755 50.5815 24.8085 50.3965V45.1795H18.87C18.648 44.7725 18.426 44.236 18.204 43.57C18.019 42.904 17.9265 42.201 17.9265 41.461C17.9265 40.129 18.2225 39.167 18.8145 38.575C19.4435 37.983 20.239 37.687 21.201 37.687H30.5805C31.6905 37.687 32.5415 38.0015 33.1335 38.6305C33.7625 39.2225 34.077 40.0735 34.077 41.1835V52.5055ZM39.7415 31.4155C40.1115 31.3045 40.685 31.1935 41.462 31.0825C42.276 30.9715 43.1085 30.916 43.9595 30.916C44.7735 30.916 45.495 30.9715 46.124 31.0825C46.79 31.1935 47.345 31.4155 47.789 31.7485C48.233 32.0815 48.566 32.544 48.788 33.136C49.047 33.691 49.1765 34.431 49.1765 35.356V47.2885C49.1765 48.8055 49.5465 49.897 50.2865 50.563C51.0265 51.192 52.0995 51.5065 53.5055 51.5065C54.3565 51.5065 55.041 51.4325 55.559 51.2845C56.114 51.1365 56.5395 50.9885 56.8355 50.8405V31.4155C57.2055 31.3045 57.779 31.1935 58.556 31.0825C59.37 30.9715 60.2025 30.916 61.0535 30.916C61.8675 30.916 62.589 30.9715 63.218 31.0825C63.884 31.1935 64.439 31.4155 64.883 31.7485C65.327 32.0815 65.66 32.544 65.882 33.136C66.141 33.691 66.2705 34.431 66.2705 35.356V52.228C66.2705 54.078 65.4935 55.4655 63.9395 56.3905C62.6445 57.2045 61.0905 57.815 59.2775 58.222C57.5015 58.666 55.559 58.888 53.45 58.888C51.452 58.888 49.602 58.666 47.9 58.222C46.235 57.778 44.792 57.0935 43.571 56.1685C42.35 55.2435 41.4065 54.0595 40.7405 52.6165C40.0745 51.1365 39.7415 49.3605 39.7415 47.2885V31.4155ZM86.3077 58.888C84.1247 58.888 82.0897 58.592 80.2027 58C78.3527 57.371 76.7247 56.446 75.3187 55.225C73.9497 54.004 72.8582 52.4685 72.0442 50.6185C71.2672 48.7685 70.8787 46.604 70.8787 44.125C70.8787 41.683 71.2672 39.5925 72.0442 37.8535C72.8582 36.0775 73.9127 34.6345 75.2077 33.5245C76.5027 32.3775 77.9827 31.545 79.6477 31.027C81.3127 30.472 83.0147 30.1945 84.7537 30.1945C86.7147 30.1945 88.4907 30.4905 90.0817 31.0825C91.7097 31.6745 93.0972 32.4885 94.2442 33.5245C95.4282 34.5605 96.3347 35.8 96.9637 37.243C97.6297 38.686 97.9627 40.2585 97.9627 41.9605C97.9627 43.2185 97.6112 44.1805 96.9082 44.8465C96.2052 45.5125 95.2247 45.938 93.9667 46.123L80.2582 48.1765C80.6652 49.3975 81.4977 50.3225 82.7557 50.9515C84.0137 51.5435 85.4567 51.8395 87.0847 51.8395C88.6017 51.8395 90.0262 51.6545 91.3582 51.2845C92.7272 50.8775 93.8372 50.415 94.6882 49.897C95.2802 50.267 95.7797 50.785 96.1867 51.451C96.5937 52.117 96.7972 52.82 96.7972 53.56C96.7972 55.225 96.0202 56.4645 94.4662 57.2785C93.2822 57.9075 91.9502 58.333 90.4702 58.555C88.9902 58.777 87.6027 58.888 86.3077 58.888ZM84.7537 37.0765C83.8657 37.0765 83.0887 37.2245 82.4227 37.5205C81.7937 37.8165 81.2757 38.205 80.8687 38.686C80.4617 39.13 80.1472 39.648 79.9252 40.24C79.7402 40.795 79.6292 41.3685 79.5922 41.9605L89.0827 40.4065C88.9717 39.6665 88.5647 38.9265 87.8617 38.1865C87.1587 37.4465 86.1227 37.0765 84.7537 37.0765ZM125.259 49.9525C125.259 52.7645 124.205 54.966 122.096 56.557C119.987 58.148 116.879 58.9435 112.772 58.9435C111.218 58.9435 109.775 58.8325 108.443 58.6105C107.111 58.3885 105.964 58.0555 105.002 57.6115C104.077 57.1305 103.337 56.5385 102.782 55.8355C102.264 55.1325 102.005 54.3 102.005 53.338C102.005 52.45 102.19 51.71 102.56 51.118C102.93 50.489 103.374 49.971 103.892 49.564C104.965 50.156 106.186 50.6925 107.555 51.1735C108.961 51.6175 110.57 51.8395 112.383 51.8395C113.53 51.8395 114.4 51.673 114.992 51.34C115.621 51.007 115.935 50.563 115.935 50.008C115.935 49.49 115.713 49.083 115.269 48.787C114.825 48.491 114.085 48.2505 113.049 48.0655L111.384 47.7325C108.165 47.1035 105.76 46.123 104.169 44.791C102.615 43.422 101.838 41.4795 101.838 38.9635C101.838 37.5945 102.134 36.355 102.726 35.245C103.318 34.135 104.151 33.21 105.224 32.47C106.297 31.73 107.573 31.1565 109.053 30.7495C110.57 30.3425 112.235 30.139 114.048 30.139C115.417 30.139 116.694 30.25 117.878 30.472C119.099 30.657 120.153 30.953 121.041 31.36C121.929 31.767 122.632 32.3035 123.15 32.9695C123.668 33.5985 123.927 34.357 123.927 35.245C123.927 36.096 123.761 36.836 123.428 37.465C123.132 38.057 122.743 38.5565 122.262 38.9635C121.966 38.7785 121.522 38.5935 120.93 38.4085C120.338 38.1865 119.691 38.0015 118.988 37.8535C118.285 37.6685 117.563 37.5205 116.823 37.4095C116.12 37.2985 115.473 37.243 114.881 37.243C113.66 37.243 112.716 37.391 112.05 37.687C111.384 37.946 111.051 38.3715 111.051 38.9635C111.051 39.3705 111.236 39.7035 111.606 39.9625C111.976 40.2215 112.679 40.462 113.715 40.684L115.436 41.0725C118.988 41.8865 121.504 43.015 122.984 44.458C124.501 45.864 125.259 47.6955 125.259 49.9525ZM152.576 49.9525C152.576 52.7645 151.521 54.966 149.412 56.557C147.303 58.148 144.195 58.9435 140.088 58.9435C138.534 58.9435 137.091 58.8325 135.759 58.6105C134.427 58.3885 133.28 58.0555 132.318 57.6115C131.393 57.1305 130.653 56.5385 130.098 55.8355C129.58 55.1325 129.321 54.3 129.321 53.338C129.321 52.45 129.506 51.71 129.876 51.118C130.246 50.489 130.69 49.971 131.208 49.564C132.281 50.156 133.502 50.6925 134.871 51.1735C136.277 51.6175 137.887 51.8395 139.7 51.8395C140.847 51.8395 141.716 51.673 142.308 51.34C142.937 51.007 143.252 50.563 143.252 50.008C143.252 49.49 143.03 49.083 142.586 48.787C142.142 48.491 141.402 48.2505 140.366 48.0655L138.701 47.7325C135.482 47.1035 133.077 46.123 131.486 44.791C129.932 43.422 129.155 41.4795 129.155 38.9635C129.155 37.5945 129.451 36.355 130.043 35.245C130.635 34.135 131.467 33.21 132.54 32.47C133.613 31.73 134.89 31.1565 136.37 30.7495C137.887 30.3425 139.552 30.139 141.365 30.139C142.734 30.139 144.01 30.25 145.194 30.472C146.415 30.657 147.47 30.953 148.358 31.36C149.246 31.767 149.949 32.3035 150.467 32.9695C150.985 33.5985 151.244 34.357 151.244 35.245C151.244 36.096 151.077 36.836 150.744 37.465C150.448 38.057 150.06 38.5565 149.579 38.9635C149.283 38.7785 148.839 38.5935 148.247 38.4085C147.655 38.1865 147.007 38.0015 146.304 37.8535C145.601 37.6685 144.88 37.5205 144.14 37.4095C143.437 37.2985 142.789 37.243 142.197 37.243C140.976 37.243 140.033 37.391 139.367 37.687C138.701 37.946 138.368 38.3715 138.368 38.9635C138.368 39.3705 138.553 39.7035 138.923 39.9625C139.293 40.2215 139.996 40.462 141.032 40.684L142.752 41.0725C146.304 41.8865 148.82 43.015 150.3 44.458C151.817 45.864 152.576 47.6955 152.576 49.9525ZM156.915 23.5345C156.915 22.1285 157.377 20.9445 158.302 19.9825C159.264 19.0205 160.522 18.5395 162.076 18.5395C163.63 18.5395 164.87 19.0205 165.795 19.9825C166.757 20.9445 167.238 22.1285 167.238 23.5345C167.238 24.9405 166.757 26.1245 165.795 27.0865C164.87 28.0485 163.63 28.5295 162.076 28.5295C160.522 28.5295 159.264 28.0485 158.302 27.0865C157.377 26.1245 156.915 24.9405 156.915 23.5345ZM166.794 57.9445C166.387 58.0185 165.776 58.111 164.962 58.222C164.185 58.37 163.39 58.444 162.576 58.444C161.762 58.444 161.022 58.3885 160.356 58.2775C159.727 58.1665 159.19 57.9445 158.746 57.6115C158.302 57.2785 157.951 56.8345 157.692 56.2795C157.47 55.6875 157.359 54.929 157.359 54.004V31.4155C157.766 31.3415 158.358 31.249 159.135 31.138C159.949 30.99 160.763 30.916 161.577 30.916C162.391 30.916 163.112 30.9715 163.741 31.0825C164.407 31.1935 164.962 31.4155 165.406 31.7485C165.85 32.0815 166.183 32.544 166.405 33.136C166.664 33.691 166.794 34.431 166.794 35.356V57.9445ZM182.236 48.7315C182.236 49.6935 182.532 50.378 183.124 50.785C183.753 51.192 184.622 51.3955 185.732 51.3955C186.287 51.3955 186.861 51.3585 187.453 51.2845C188.045 51.1735 188.563 51.044 189.007 50.896C189.34 51.303 189.617 51.7655 189.839 52.2835C190.098 52.7645 190.228 53.3565 190.228 54.0595C190.228 55.4655 189.691 56.6125 188.618 57.5005C187.582 58.3885 185.732 58.8325 183.068 58.8325C179.812 58.8325 177.296 58.0925 175.52 56.6125C173.781 55.1325 172.912 52.7275 172.912 49.3975V25.6435C173.319 25.5325 173.892 25.4215 174.632 25.3105C175.409 25.1625 176.223 25.0885 177.074 25.0885C178.702 25.0885 179.96 25.3845 180.848 25.9765C181.773 26.5315 182.236 27.734 182.236 29.584V33.136H189.506C189.728 33.543 189.932 34.061 190.117 34.69C190.339 35.282 190.45 35.948 190.45 36.688C190.45 37.983 190.154 38.9265 189.562 39.5185C189.007 40.0735 188.248 40.351 187.286 40.351H182.236V48.7315Z" fill="white"/>
<circle cx="18.5" cy="70.9167" r="6.16667" fill="white"/>
</svg>
